<svg width="2068" height="1076" xmlns="http://www.w3.org/2000/svg" xmlns:xlink="http://www.w3.org/1999/xlink" xml:space="preserve" overflow="hidden"><defs><linearGradient x1="2213" y1="1513" x2="2213" y2="1621" gradientUnits="userSpaceOnUse" spreadMethod="reflect" id="fill0"><stop offset="0" stop-color="#BFBFBF"/><stop offset="0.015873" stop-color="#C0C0C0"/><stop offset="0.031746" stop-color="#C2C2C2"/><stop offset="0.047619" stop-color="#C4C4C4"/><stop offset="0.0634921" stop-color="#C6C6C6"/><stop offset="0.0793651" stop-color="#C8C8C8"/><stop offset="0.0952381" stop-color="#C9C9C9"/><stop offset="0.111111" stop-color="#CBCBCB"/><stop offset="0.126984" stop-color="#CDCDCD"/><stop offset="0.142857" stop-color="#CFCFCF"/><stop offset="0.15873" stop-color="#D0D0D0"/><stop offset="0.174603" stop-color="#D2D2D2"/><stop offset="0.190476" stop-color="#D3D3D3"/><stop offset="0.206349" stop-color="#D5D5D5"/><stop offset="0.222222" stop-color="#D7D7D7"/><stop offset="0.238095" stop-color="#D8D8D8"/><stop offset="0.253968" stop-color="#DADADA"/><stop offset="0.269841" stop-color="#DBDBDB"/><stop offset="0.285714" stop-color="#DCDCDC"/><stop offset="0.301587" stop-color="#DEDEDE"/><stop offset="0.31746" stop-color="#DFDFDF"/><stop offset="0.333333" stop-color="#E1E1E1"/><stop offset="0.349206" stop-color="#E2E2E2"/><stop offset="0.365079" stop-color="#E3E3E3"/><stop offset="0.380952" stop-color="#E4E4E4"/><stop offset="0.396825" stop-color="#E6E6E6"/><stop offset="0.412698" stop-color="#E7E7E7"/><stop offset="0.428571" stop-color="#E8E8E8"/><stop offset="0.444444" stop-color="#E9E9E9"/><stop offset="0.460317" stop-color="#EAEAEA"/><stop offset="0.47619" stop-color="#EBEBEB"/><stop offset="0.492063" stop-color="#EDEDED"/><stop offset="0.507937" stop-color="#EEEEEE"/><stop offset="0.52381" stop-color="#EFEFEF"/><stop offset="0.539683" stop-color="#F0F0F0"/><stop offset="0.555556" stop-color="#F1F1F1"/><stop offset="0.571429" stop-color="#F1F1F1"/><stop offset="0.587302" stop-color="#F2F2F2"/><stop offset="0.603175" stop-color="#F3F3F3"/><stop offset="0.619048" stop-color="#F4F4F4"/><stop offset="0.634921" stop-color="#F5F5F5"/><stop offset="0.650794" stop-color="#F6F6F6"/><stop offset="0.666667" stop-color="#F6F6F6"/><stop offset="0.68254" stop-color="#F7F7F7"/><stop offset="0.698413" stop-color="#F8F8F8"/><stop offset="0.714286" stop-color="#F8F8F8"/><stop offset="0.730159" stop-color="#F9F9F9"/><stop offset="0.746032" stop-color="#FAFAFA"/><stop offset="0.761905" stop-color="#FAFAFA"/><stop offset="0.777778" stop-color="#FBFBFB"/><stop offset="0.793651" stop-color="#FBFBFB"/><stop offset="0.809524" stop-color="#FCFCFC"/><stop offset="0.825397" stop-color="#FCFCFC"/><stop offset="0.84127" stop-color="#FCFCFC"/><stop offset="0.857143" stop-color="#FDFDFD"/><stop offset="0.873016" stop-color="#FDFDFD"/><stop offset="0.888889" stop-color="#FDFDFD"/><stop offset="0.904762" stop-color="#FEFEFE"/><stop offset="0.920635" stop-color="#FEFEFE"/><stop offset="0.936508" stop-color="#FEFEFE"/><stop offset="0.952381" stop-color="#FEFEFE"/><stop offset="0.968254" stop-color="#FEFEFE"/><stop offset="0.984127" stop-color="#FEFEFE"/><stop offset="1" stop-color="#FFFFFF"/></linearGradient></defs><g transform="translate(-1189 -552)"><rect x="1189" y="552" width="2048" height="1069" fill="#FFFFFF"/><rect x="1189" y="1513" width="2048" height="108" fill="url(#fill0)"/><text font-family="Arial,Arial_MSFontService,sans-serif" font-weight="400" font-size="50" transform="matrix(1 0 0 1 2163.32 1586)">Wall</text><path d="M1189.5 1513.5 3237.39 1513.5" stroke="#000000" stroke-width="6.875" stroke-miterlimit="8" fill="none" fill-rule="evenodd"/><path d="M0 0 0.000360892 850.773" stroke="#000000" stroke-width="4.58333" stroke-miterlimit="8" fill="none" fill-rule="evenodd" transform="matrix(1 0 0 -1 1417.5 1513.27)"/><path d="M1766.71 662.5C1766.71 918.422 1767.3 835.243 1767.5 984.451 1767.71 1138.24 1653.67 1392.59 1417.5 1516.5" stroke="#000000" stroke-width="4.58333" stroke-miterlimit="8" fill="none" fill-rule="evenodd"/><path d="M1447.5 836.208 1732.55 836.209 1732.55 840.792 1447.5 840.792ZM1706.21 820.479 1737.1 838.5 1706.21 856.521C1705.12 857.159 1703.71 856.79 1703.07 855.697 1702.44 854.603 1702.81 853.2 1703.9 852.562L1731.4 836.521 1731.4 840.48 1703.9 824.438C1702.81 823.8 1702.44 822.397 1703.07 821.304 1703.71 820.211 1705.12 819.841 1706.21 820.479Z"/><path d="M1447.5 950.208 1732.55 950.209 1732.55 954.792 1447.5 954.792ZM1706.21 934.479 1737.1 952.5 1706.21 970.522C1705.12 971.159 1703.71 970.79 1703.07 969.697 1702.44 968.604 1702.81 967.2 1703.9 966.563L1731.4 950.521 1731.4 954.48 1703.9 938.438C1702.81 937.8 1702.44 936.397 1703.07 935.304 1703.71 934.211 1705.12 933.841 1706.21 934.479Z"/><path d="M1447.5 1404.21 1517.58 1404.21 1517.58 1408.79 1447.5 1408.79ZM1491.24 1388.48 1522.13 1406.5 1491.24 1424.52C1490.14 1425.16 1488.74 1424.79 1488.1 1423.7 1487.47 1422.6 1487.84 1421.2 1488.93 1420.56L1516.43 1404.52 1516.43 1408.48 1488.93 1392.44C1487.84 1391.8 1487.47 1390.4 1488.1 1389.3 1488.74 1388.21 1490.14 1387.84 1491.24 1388.48Z"/><path d="M1447.5 1290.21 1623 1290.21 1623 1294.79 1447.5 1294.79ZM1596.65 1274.48 1627.55 1292.5 1596.65 1310.52C1595.56 1311.16 1594.16 1310.79 1593.52 1309.7 1592.88 1308.6 1593.25 1307.2 1594.34 1306.56L1621.84 1290.52 1621.84 1294.48 1594.34 1278.44C1593.25 1277.8 1592.88 1276.4 1593.52 1275.3 1594.16 1274.21 1595.56 1273.84 1596.65 1274.48Z"/><path d="M1447.5 1177.21 1682.58 1177.21 1682.58 1181.79 1447.5 1181.79ZM1656.24 1161.48 1687.13 1179.5 1656.24 1197.52C1655.14 1198.16 1653.74 1197.79 1653.1 1196.7 1652.47 1195.6 1652.84 1194.2 1653.93 1193.56L1681.43 1177.52 1681.43 1181.48 1653.93 1165.44C1652.84 1164.8 1652.47 1163.4 1653.1 1162.3 1653.74 1161.21 1655.14 1160.84 1656.24 1161.48Z"/><path d="M1447.5 1063.21 1721.54 1063.21 1721.54 1067.79 1447.5 1067.79ZM1695.2 1047.48 1726.09 1065.5 1695.2 1083.52C1694.1 1084.16 1692.7 1083.79 1692.06 1082.7 1691.42 1081.6 1691.79 1080.2 1692.89 1079.56L1720.39 1063.52 1720.39 1067.48 1692.89 1051.44C1691.79 1050.8 1691.42 1049.4 1692.06 1048.3 1692.7 1047.21 1694.1 1046.84 1695.2 1047.48Z"/><path d="M1452.5 723.208 1737.55 723.209 1737.55 727.792 1452.5 727.792ZM1711.21 707.479 1742.1 725.501 1711.21 743.522C1710.12 744.159 1708.71 743.79 1708.07 742.697 1707.44 741.604 1707.81 740.2 1708.9 739.563L1736.4 723.521 1736.4 727.48 1708.9 711.438C1707.81 710.801 1707.44 709.397 1708.07 708.304 1708.71 707.211 1710.12 706.842 1711.21 707.479Z"/><text font-family="Arial,Arial_MSFontService,sans-serif" font-weight="400" font-size="50" transform="matrix(1 0 0 1 2586.67 844)">Freestream flow</text><text font-family="Arial,Arial_MSFontService,sans-serif" font-weight="400" font-size="50" transform="matrix(1 0 0 1 2991.74 1251)">Boundary </text><text font-family="Arial,Arial_MSFontService,sans-serif" font-weight="400" font-size="50" transform="matrix(1 0 0 1 2991.74 1312)">layer</text><text font-family="Arial,Arial_MSFontService,sans-serif" font-weight="400" font-size="50" transform="matrix(1 0 0 1 2586.67 1138)">Outer </text><text font-family="Arial,Arial_MSFontService,sans-serif" font-weight="400" font-size="50" transform="matrix(1 0 0 1 2725.88 1138)">layer</text><text font-family="Arial,Arial_MSFontService,sans-serif" font-weight="400" font-size="50" transform="matrix(1 0 0 1 2586.67 1491)">Viscous sublayer</text><text font-family="Arial,Arial_MSFontService,sans-serif" font-weight="400" font-size="50" transform="matrix(1 0 0 1 2586.67 1360)">Buffer layer</text><path d="M0 0 1904.05 0.000360892" stroke="#000000" stroke-width="4.58333" stroke-miterlimit="8" stroke-dasharray="4.58333 4.58333" fill="none" fill-rule="evenodd" transform="matrix(-1 0 0 1 3236.55 988.5)"/><path d="M0 0 1570.14 0.000360892" stroke="#000000" stroke-width="4.58333" stroke-miterlimit="8" stroke-dasharray="4.58333 4.58333" fill="none" fill-rule="evenodd" transform="matrix(-1 0 0 1 2902.64 1248.5)"/><path d="M0 0 1570.14 0.000360892" stroke="#000000" stroke-width="4.58333" stroke-miterlimit="8" stroke-dasharray="4.58333 4.58333" fill="none" fill-rule="evenodd" transform="matrix(-1 0 0 1 2902.64 1435.5)"/><text font-family="Arial,Arial_MSFontService,sans-serif" font-weight="400" font-size="50" transform="matrix(1 0 0 1 1572.64 617)">u</text><path d="M2.29167-1.06032e-06 2.29203 775.457-2.29131 775.457-2.29167 1.06032e-06ZM18.0215 749.116 0.000360676 780.009-18.0208 749.116C-18.6585 748.022-18.2893 746.619-17.196 745.982-16.1028 745.344-14.6996 745.713-14.0618 746.806L1.97985 774.306-1.97913 774.306 14.0625 746.806C14.7002 745.713 16.1035 745.344 17.1967 745.982 18.29 746.619 18.6592 748.022 18.0215 749.116Z" transform="matrix(1 0 0 -1 1284.5 1472.5)"/><text font-family="Arial,Arial_MSFontService,sans-serif" font-weight="400" font-size="50" transform="matrix(1 0 0 1 1221.65 1100)">y</text><path d="M2535.11 1070.57 2532.59 1076.91 2528.84 1082.64 2524.13 1087.45 2518.62 1091.24 2512.5 1093.91 2505.93 1095.37 2499.08 1095.53 2492.14 1094.28 2485.59 1091.68 2479.86 1087.93 2475.05 1083.22 2471.27 1077.71 2468.59 1071.59 2467.13 1065.02 2466.97 1058.17 2468.22 1051.23 2470.83 1044.68 2474.57 1038.95 2479.29 1034.14 2484.79 1030.35 2490.92 1027.68 2497.49 1026.22 2504.33 1026.06 2511.66 1027.38 2515.68 1030.83 2512.7 1034.31 2509.15 1031.26 2510.23 1031.78 2503.75 1030.61 2504.21 1030.65 2497.82 1030.8 2498.26 1030.74 2492.13 1032.11 2492.55 1031.97 2486.83 1034.47 2487.21 1034.26 2482.07 1037.79 2482.41 1037.51 2478.01 1042 2478.29 1041.65 2474.79 1047 2475 1046.59 2472.56 1052.71 2472.69 1052.27 2471.53 1058.75 2471.56 1058.3 2471.71 1064.69 2471.65 1064.24 2473.02 1070.38 2472.88 1069.96 2475.38 1075.68 2475.17 1075.29 2478.7 1080.43 2478.42 1080.1 2482.91 1084.5 2482.56 1084.22 2487.91 1087.71 2487.5 1087.5 2493.62 1089.94 2493.18 1089.81 2499.66 1090.98 2499.21 1090.94 2505.6 1090.8 2505.15 1090.85 2511.29 1089.48 2510.87 1089.62 2516.59 1087.12 2516.21 1087.34 2521.35 1083.8 2521.01 1084.08 2525.41 1079.59 2525.13 1079.94 2528.63 1074.59 2528.42 1075 2530.85 1068.88ZM2519.78 1019.2 2531.45 1047.65 2501.7 1039.92Z"/><path d="M2365.63 1077.72 2371.28 1073.9 2377.6 1071.27 2384.2 1069.94 2390.88 1069.9 2397.45 1071.13 2403.71 1073.61 2409.46 1077.33 2414.49 1082.26 2418.45 1088.1 2421.08 1094.42 2422.41 1101.02 2422.45 1107.7 2421.22 1114.27 2418.73 1120.53 2415.01 1126.28 2410.08 1131.32 2404.25 1135.27 2397.93 1137.9 2391.33 1139.23 2384.64 1139.27 2378.08 1138.04 2371.82 1135.56 2366.07 1131.84 2360.75 1126.63 2359.36 1121.51 2363.79 1120.31 2365.01 1124.83 2364.4 1123.79 2369.11 1128.4 2368.75 1128.12 2374.12 1131.59 2373.72 1131.38 2379.56 1133.7 2379.14 1133.58 2385.27 1134.73 2384.84 1134.69 2391.08 1134.65 2390.64 1134.7 2396.8 1133.46 2396.37 1133.59 2402.27 1131.13 2401.87 1131.35 2407.32 1127.65 2406.97 1127.95 2411.58 1123.24 2411.29 1123.6 2414.76 1118.23 2414.56 1118.63 2416.88 1112.79 2416.75 1113.21 2417.9 1107.08 2417.86 1107.51 2417.83 1101.27 2417.87 1101.71 2416.63 1095.55 2416.76 1095.98 2414.31 1090.08 2414.52 1090.48 2410.83 1085.03 2411.12 1085.38 2406.42 1080.77 2406.77 1081.06 2401.41 1077.59 2401.81 1077.79 2395.96 1075.47 2396.39 1075.6 2390.25 1074.45 2390.69 1074.49 2384.45 1074.52 2384.89 1074.48 2378.72 1075.72 2379.15 1075.59 2373.25 1078.04 2373.66 1077.83 2368.2 1081.52ZM2349.43 1128.83 2355.77 1098.74 2376.04 1121.86Z"/><path d="M2480.72 1220.7 2473.95 1221.51 2467.13 1220.94 2460.65 1219.09 2454.7 1216.06 2449.43 1211.96 2445.01 1206.88 2441.61 1200.93 2439.39 1194.24 2438.56 1187.24 2439.12 1180.42 2440.97 1173.94 2444 1167.99 2448.11 1162.72 2453.19 1158.3 2459.13 1154.9 2465.82 1152.68 2472.82 1151.85 2479.65 1152.41 2486.12 1154.26 2492.08 1157.29 2497.34 1161.4 2501.77 1166.48 2505.17 1172.42 2507.5 1179.49 2506.39 1184.67 2501.91 1183.71 2502.89 1179.13 2502.96 1180.33 2500.89 1174.08 2501.08 1174.5 2497.9 1168.95 2498.16 1169.32 2494.03 1164.57 2494.35 1164.88 2489.43 1161.04 2489.8 1161.28 2484.24 1158.45 2484.65 1158.61 2478.61 1156.88 2479.05 1156.96 2472.68 1156.44 2473.14 1156.43 2466.59 1157.21 2467.04 1157.11 2460.79 1159.18 2461.21 1158.99 2455.66 1162.16 2456.03 1161.9 2451.28 1166.03 2451.59 1165.71 2447.75 1170.63 2447.99 1170.26 2445.15 1175.82 2445.32 1175.41 2443.59 1181.46 2443.67 1181.02 2443.15 1187.39 2443.14 1186.93 2443.92 1193.47 2443.82 1193.02 2445.88 1199.28 2445.7 1198.86 2448.87 1204.4 2448.61 1204.04 2452.74 1208.78 2452.42 1208.48 2457.34 1212.31 2456.97 1212.08 2462.53 1214.91 2462.12 1214.75 2468.17 1216.48 2467.73 1216.39 2474.1 1216.92 2473.64 1216.93 2480.18 1216.15ZM2518.57 1182.73 2499.13 1206.55 2491.73 1176.71Z"/><path d="M2249.5 1094.16 2245.7 1088.5 2243.09 1082.17 2241.79 1075.57 2241.78 1068.89 2243.03 1062.32 2245.54 1056.08 2249.28 1050.34 2254.23 1045.32 2260.08 1041.39 2266.41 1038.78 2273.02 1037.48 2279.7 1037.46 2286.26 1038.72 2292.51 1041.23 2298.25 1044.97 2303.27 1049.92 2307.2 1055.77 2309.81 1062.1 2311.11 1068.71 2311.12 1075.39 2309.87 1081.95 2307.36 1088.2 2303.62 1093.94 2298.39 1099.23 2293.27 1100.6 2292.08 1096.17 2296.61 1094.97 2295.57 1095.57 2300.19 1090.88 2299.9 1091.24 2303.4 1085.88 2303.19 1086.28 2305.53 1080.45 2305.41 1080.87 2306.58 1074.74 2306.54 1075.18 2306.52 1068.94 2306.57 1069.38 2305.35 1063.21 2305.48 1063.64 2303.05 1057.73 2303.26 1058.13 2299.59 1052.67 2299.88 1053.02 2295.19 1048.39 2295.55 1048.68 2290.2 1045.19 2290.59 1045.4 2284.76 1043.06 2285.18 1043.18 2279.05 1042.01 2279.49 1042.05 2273.25 1042.06 2273.69 1042.02 2267.52 1043.23 2267.95 1043.1 2262.04 1045.54 2262.45 1045.32 2256.98 1049 2257.33 1048.7 2252.71 1053.39 2252.99 1053.04 2249.5 1058.39 2249.71 1057.99 2247.37 1063.83 2247.49 1063.4 2246.32 1069.53 2246.36 1069.1 2246.37 1075.34 2246.33 1074.9 2247.54 1081.06 2247.42 1080.63 2249.85 1086.54 2249.63 1086.14 2253.31 1091.61ZM2300.54 1110.56 2270.48 1104.11 2293.68 1083.93Z"/><path d="M2276.75 1154.19 2282.86 1157.22 2288.26 1161.42 2292.67 1166.51 2296 1172.31 2298.16 1178.63 2299.08 1185.3 2298.68 1192.13 2296.87 1198.95 2293.73 1205.26 2289.53 1210.67 2284.44 1215.07 2278.64 1218.4 2272.32 1220.56 2265.65 1221.48 2258.81 1221.08 2252 1219.27 2245.69 1216.14 2240.28 1211.93 2235.88 1206.84 2232.55 1201.05 2230.39 1194.73 2229.47 1188.06 2229.87 1181.22 2231.78 1174.03 2235.55 1170.3 2238.78 1173.56 2235.45 1176.85 2236.05 1175.81 2234.36 1182.17 2234.43 1181.72 2234.05 1188.1 2234.04 1187.65 2234.9 1193.88 2234.79 1193.45 2236.82 1199.35 2236.64 1198.96 2239.74 1204.37 2239.49 1204.01 2243.6 1208.76 2243.27 1208.45 2248.32 1212.38 2247.93 1212.13 2253.83 1215.06 2253.4 1214.9 2259.77 1216.59 2259.32 1216.52 2265.7 1216.9 2265.25 1216.91 2271.47 1216.05 2271.05 1216.15 2276.95 1214.13 2276.55 1214.31 2281.96 1211.21 2281.6 1211.46 2286.36 1207.35 2286.05 1207.68 2289.97 1202.63 2289.73 1203.02 2292.66 1197.12 2292.5 1197.55 2294.19 1191.18 2294.11 1191.63 2294.49 1185.25 2294.51 1185.7 2293.65 1179.47 2293.75 1179.9 2291.73 1174 2291.91 1174.4 2288.8 1168.99 2289.06 1169.34 2284.95 1164.59 2285.27 1164.9 2280.23 1160.98 2280.61 1161.22 2274.71 1158.29ZM2224.3 1165.26 2253.6 1155.96 2243.46 1184.98Z"/><path d="M2171.47 1089.38 2166.87 1094.41 2161.32 1098.43 2155.21 1101.25 2148.72 1102.83 2142.05 1103.15 2135.38 1102.18 2128.93 1099.9 2122.89 1096.26 2117.69 1091.5 2113.67 1085.96 2110.85 1079.84 2109.27 1073.35 2108.95 1066.68 2109.91 1060.02 2112.2 1053.56 2115.83 1047.52 2120.6 1042.32 2126.14 1038.3 2132.26 1035.48 2138.75 1033.9 2145.42 1033.58 2152.08 1034.55 2158.54 1036.84 2164.92 1040.67 2167.45 1045.33 2163.42 1047.52 2161.19 1043.41 2162.02 1044.28 2156.37 1040.88 2156.79 1041.08 2150.76 1038.94 2151.2 1039.05 2144.98 1038.15 2145.42 1038.17 2139.19 1038.47 2139.62 1038.4 2133.56 1039.88 2133.97 1039.74 2128.26 1042.37 2128.65 1042.14 2123.48 1045.9 2123.82 1045.59 2119.37 1050.45 2119.64 1050.08 2116.25 1055.72 2116.45 1055.31 2114.31 1061.33 2114.42 1060.9 2113.51 1067.12 2113.53 1066.68 2113.83 1072.91 2113.77 1072.48 2115.25 1078.54 2115.11 1078.13 2117.74 1083.83 2117.51 1083.45 2121.26 1088.62 2120.96 1088.28 2125.81 1092.73 2125.45 1092.45 2131.09 1095.85 2130.68 1095.65 2136.7 1097.79 2136.27 1097.68 2142.49 1098.59 2142.05 1098.56 2148.28 1098.26 2147.85 1098.33 2153.91 1096.85 2153.49 1096.99 2159.2 1094.36 2158.81 1094.59 2163.99 1090.83 2163.64 1091.14 2168.1 1086.28ZM2175.42 1035.92 2176.21 1066.65 2151.15 1048.85Z"/><path d="M2055.25 1140.06 2055.97 1146.84 2055.32 1153.66 2053.39 1160.11 2050.29 1166.02 2046.11 1171.24 2040.98 1175.6 2034.99 1178.93 2028.27 1181.05 2021.26 1181.8 2014.45 1181.15 2008 1179.22 2002.08 1176.12 1996.86 1171.94 1992.51 1166.81 1989.18 1160.83 1987.05 1154.11 1986.3 1147.1 1986.95 1140.28 1988.88 1133.83 1991.99 1127.91 1996.16 1122.69 2001.29 1118.34 2007.28 1115.01 2014.37 1112.76 2019.55 1113.94 2018.52 1118.41 2013.96 1117.37 2015.16 1117.32 2008.88 1119.31 2009.3 1119.13 2003.72 1122.23 2004.09 1121.98 1999.29 1126.05 1999.6 1125.73 1995.7 1130.6 1995.94 1130.24 1993.04 1135.76 1993.21 1135.35 1991.41 1141.38 1991.49 1140.94 1990.89 1147.3 1990.89 1146.84 1991.58 1153.39 1991.49 1152.94 1993.48 1159.22 1993.3 1158.8 1996.4 1164.39 1996.15 1164.02 2000.21 1168.81 1999.9 1168.5 2004.77 1172.4 2004.41 1172.16 2009.93 1175.06 2009.52 1174.9 2015.54 1176.7 2015.1 1176.61 2021.47 1177.22 2021.01 1177.22 2027.56 1176.52 2027.11 1176.62 2033.39 1174.63 2032.97 1174.81 2038.56 1171.7 2038.19 1171.96 2042.98 1167.89 2042.67 1168.21 2046.57 1163.33 2046.33 1163.7 2049.23 1158.17 2049.06 1158.58 2050.87 1152.56 2050.78 1153 2051.38 1146.64 2051.39 1147.1 2050.69 1140.54ZM2017.75 1101.74 2041.33 1121.47 2011.4 1128.5Z"/><path d="M2103.85 1203.05 2100.72 1196.99 2098.85 1190.4 2098.31 1183.69 2099.06 1177.05 2101.06 1170.68 2104.27 1164.76 2108.64 1159.49 2114.13 1155.07 2120.39 1151.83 2126.98 1149.96 2133.69 1149.43 2140.33 1150.18 2146.71 1152.17 2152.63 1155.38 2157.9 1159.75 2162.32 1165.24 2165.56 1171.51 2167.42 1178.09 2167.96 1184.81 2167.21 1191.44 2165.21 1197.82 2162.01 1203.74 2157.64 1209.01 2151.84 1213.68 2146.59 1214.45 2145.92 1209.92 2150.55 1209.23 2149.45 1209.72 2154.58 1205.59 2154.26 1205.91 2158.34 1200.99 2158.09 1201.36 2161.08 1195.83 2160.91 1196.24 2162.77 1190.28 2162.68 1190.71 2163.38 1184.51 2163.38 1184.95 2162.87 1178.69 2162.95 1179.13 2161.21 1172.98 2161.38 1173.4 2158.35 1167.55 2158.61 1167.94 2154.47 1162.81 2154.8 1163.13 2149.88 1159.05 2150.25 1159.3 2144.72 1156.31 2145.13 1156.48 2139.17 1154.62 2139.6 1154.71 2133.4 1154 2133.84 1154.01 2127.57 1154.51 2128.02 1154.43 2121.87 1156.18 2122.29 1156.01 2116.44 1159.03 2116.83 1158.78 2111.69 1162.91 2112.02 1162.59 2107.94 1167.51 2108.19 1167.14 2105.2 1172.67 2105.37 1172.26 2103.5 1178.22 2103.59 1177.79 2102.89 1183.99 2102.9 1183.55 2103.4 1189.81 2103.32 1189.37 2105.07 1195.52 2104.9 1195.09 2107.92 1200.95ZM2152.68 1225.17 2123.56 1215.33 2148.91 1197.93Z"/><path d="M1924.88 1038.68 1927.08 1032.23 1930.53 1026.31 1935 1021.27 1940.3 1017.21 1946.28 1014.23 1952.77 1012.44 1959.6 1011.94 1966.59 1012.83 1973.27 1015.1 1979.18 1018.55 1984.22 1023.02 1988.28 1028.32 1991.26 1034.3 1993.06 1040.79 1993.56 1047.62 1992.66 1054.61 1990.39 1061.29 1986.94 1067.2 1982.47 1072.24 1977.17 1076.3 1971.19 1079.28 1964.7 1081.08 1957.87 1081.58 1950.49 1080.64 1946.29 1077.39 1949.1 1073.76 1952.8 1076.63 1951.69 1076.17 1958.22 1077 1957.76 1076.99 1964.14 1076.52 1963.7 1076.6 1969.76 1074.92 1969.34 1075.08 1974.93 1072.3 1974.56 1072.53 1979.51 1068.74 1979.19 1069.04 1983.36 1064.33 1983.09 1064.7 1986.32 1059.18 1986.13 1059.59 1988.25 1053.36 1988.15 1053.8 1988.98 1047.27 1988.97 1047.73 1988.5 1041.35 1988.58 1041.8 1986.9 1035.74 1987.06 1036.15 1984.28 1030.56 1984.51 1030.93 1980.72 1025.98 1981.02 1026.3 1976.31 1022.13 1976.67 1022.4 1971.15 1019.17 1971.57 1019.36 1965.34 1017.24 1965.78 1017.35 1959.25 1016.51 1959.71 1016.52 1953.33 1016.99 1953.77 1016.92 1947.72 1018.59 1948.13 1018.43 1942.54 1021.22 1942.91 1020.98 1937.96 1024.78 1938.28 1024.48 1934.11 1029.18 1934.38 1028.82 1931.15 1034.34 1931.34 1033.92 1929.22 1040.16ZM1942.79 1089.21 1929.69 1061.39 1959.8 1067.61Z"/><path d="M1888.23 1148.22 1895.01 1148.9 1901.55 1150.93 1907.46 1154.14 1912.61 1158.39 1916.86 1163.54 1920.07 1169.45 1922.1 1175.99 1922.8 1183 1922.1 1190.01 1920.07 1196.55 1916.86 1202.46 1912.61 1207.61 1907.46 1211.86 1901.55 1215.07 1895.01 1217.1 1888 1217.8 1880.99 1217.1 1874.45 1215.07 1868.54 1211.86 1863.39 1207.61 1859.14 1202.46 1855.93 1196.55 1853.9 1190.01 1853.16 1182.61 1855.37 1177.81 1859.54 1179.73 1857.58 1183.96 1857.78 1182.77 1858.44 1189.32 1858.35 1188.87 1860.24 1194.97 1860.07 1194.56 1863.06 1200.08 1862.82 1199.71 1866.79 1204.52 1866.48 1204.21 1871.29 1208.18 1870.92 1207.94 1876.44 1210.93 1876.03 1210.76 1882.13 1212.65 1881.68 1212.56 1888.23 1213.22 1887.77 1213.22 1894.32 1212.56 1893.87 1212.65 1899.97 1210.76 1899.56 1210.93 1905.08 1207.94 1904.71 1208.18 1909.52 1204.21 1909.21 1204.52 1913.18 1199.71 1912.94 1200.08 1915.93 1194.56 1915.76 1194.97 1917.65 1188.87 1917.56 1189.32 1918.22 1182.77 1918.22 1183.23 1917.56 1176.68 1917.65 1177.13 1915.76 1171.03 1915.93 1171.44 1912.94 1165.92 1913.18 1166.29 1909.21 1161.48 1909.52 1161.79 1904.71 1157.82 1905.08 1158.06 1899.56 1155.07 1899.97 1155.24 1893.87 1153.35 1894.32 1153.44 1887.77 1152.78ZM1843.06 1177.07 1867.2 1158.03 1867.95 1188.76Z"/><path d="M1579.5 1455.21 1629.92 1455.21 1629.92 1459.79 1579.5 1459.79ZM1625.33 1443.75 1652.83 1457.5 1625.33 1471.25Z"/><path d="M1689.5 1483.21 1739.92 1483.21 1739.92 1487.79 1689.5 1487.79ZM1735.33 1471.75 1762.83 1485.5 1735.33 1499.25Z"/><path d="M1800.5 1455.21 1850.92 1455.21 1850.92 1459.79 1800.5 1459.79ZM1846.33 1443.75 1873.83 1457.5 1846.33 1471.25Z"/><path d="M1910.5 1483.21 1960.92 1483.21 1960.92 1487.79 1910.5 1487.79ZM1956.33 1471.75 1983.83 1485.5 1956.33 1499.25Z"/><path d="M2020.5 1455.21 2070.92 1455.21 2070.92 1459.79 2020.5 1459.79ZM2066.33 1443.75 2093.83 1457.5 2066.33 1471.25Z"/><path d="M2131.5 1483.21 2181.92 1483.21 2181.92 1487.79 2131.5 1487.79ZM2177.33 1471.75 2204.83 1485.5 2177.33 1499.25Z"/><path d="M2241.5 1456.21 2291.92 1456.21 2291.92 1460.79 2241.5 1460.79ZM2287.33 1444.75 2314.83 1458.5 2287.33 1472.25Z"/><path d="M2351.5 1484.21 2401.92 1484.21 2401.92 1488.79 2351.5 1488.79ZM2397.33 1472.75 2424.83 1486.5 2397.33 1500.25Z"/><path d="M2462.5 1455.21 2512.92 1455.21 2512.92 1459.79 2462.5 1459.79ZM2508.33 1443.75 2535.83 1457.5 2508.33 1471.25Z"/><path d="M1833.31 1136.3 1826.8 1138.32 1819.98 1139 1813.28 1138.35 1806.88 1136.45 1800.95 1133.37 1795.68 1129.18 1791.26 1123.95 1787.87 1117.77 1785.78 1111.04 1785.1 1104.22 1785.74 1097.52 1787.64 1091.11 1790.73 1085.19 1794.92 1079.92 1800.15 1075.5 1806.33 1072.11 1813.06 1070.02 1819.88 1069.33 1826.58 1069.98 1832.98 1071.88 1838.91 1074.96 1844.18 1079.16 1848.6 1084.38 1852.18 1090.91 1852.02 1096.21 1847.44 1096.08 1847.58 1091.4 1847.86 1092.57 1844.69 1086.79 1844.95 1087.17 1840.82 1082.29 1841.15 1082.6 1836.23 1078.69 1836.6 1078.93 1831.06 1076.05 1831.47 1076.21 1825.49 1074.44 1825.92 1074.52 1819.66 1073.92 1820.11 1073.92 1813.75 1074.56 1814.2 1074.46 1807.91 1076.42 1808.33 1076.24 1802.55 1079.4 1802.93 1079.14 1798.05 1083.27 1798.37 1082.95 1794.45 1087.87 1794.69 1087.5 1791.81 1093.03 1791.98 1092.63 1790.2 1098.61 1790.28 1098.18 1789.68 1104.44 1789.68 1103.99 1790.32 1110.35 1790.23 1109.9 1792.18 1116.19 1792 1115.77 1795.17 1121.54 1794.91 1121.16 1799.04 1126.04 1798.71 1125.73 1803.63 1129.65 1803.26 1129.41 1808.8 1132.29 1808.39 1132.12 1814.38 1133.9 1813.94 1133.81 1820.2 1134.42 1819.75 1134.42 1826.11 1133.78 1825.66 1133.87 1831.95 1131.92ZM1863.65 1092.09 1848.85 1119.04 1836.17 1091.04Z"/><path d="M0.149642-2.28678 9.04596-1.70462 17.7986-0.0334546 25.9932 2.56633 33.3737 5.95602 39.6384 9.98408 42.3454 12.263 44.6511 14.6508 46.551 17.1749 47.9955 19.8354 48.9197 22.6251 49.2158 25.2505 49.4851 27.6388 49.3833 27.1749 50.1682 29.5444 50.0068 29.1716 51.2731 31.5037 51.0901 31.2191 52.8033 33.4952 52.6209 33.2814 54.7466 35.4828 54.574 35.3216 57.0779 37.4295 56.8414 37.2551 62.8463 41.1161 62.3504 40.876 72.1709 44.2446 70.6838 48.58 60.6009 45.1213 54.2388 41.0306 51.5317 38.7517 49.226 36.364 47.3261 33.8398 45.8816 31.1793 44.9574 28.3896 44.6613 25.7641 44.392 23.3759 44.4939 23.8398 43.7089 21.4703 43.8703 21.8431 42.6041 19.511 42.787 19.7956 41.0738 17.5195 41.2563 17.7333 39.1305 15.5319 39.3031 15.6931 36.7992 13.5852 37.0357 13.7596 31.0309 9.89865 31.3138 10.0536 24.2089 6.79044 24.4723 6.89228 16.5422 4.37641 16.8055 4.44305 8.32535 2.82392 8.6055 2.8597-0.149642 2.28678ZM69.6988 32.022 93.8771 51.0147 64.176 58.9617Z" transform="matrix(1 0 0 -1 1740.5 1338.51)"/><path d="M0.250967-2.27788 5.98181-1.64648 11.7266 0.200239 17.0608 3.04951 21.8286 6.73633 25.87 11.1114 29.0132 16.0373 31.0655 21.3815 31.7633 26.6834 32.4257 31.7163 32.293 31.1938 34.165 36.0686 33.5974 35.2224 40.313 41.5517 37.1695 44.8871 30.0736 38.1995 27.917 32.5835 27.2192 27.2815 26.5568 22.2487 26.6895 22.7712 24.8175 17.8964 25.0249 18.3076 22.1161 13.749 22.3647 14.0713 18.5918 9.98703 18.8734 10.2449 14.4094 6.79306 14.7315 7.00154 9.74909 4.34018 10.1275 4.50052 4.79946 2.78776 5.24984 2.88394-0.250967 2.27788ZM41.1403 28.9256 58.9824 53.965 28.2457 53.215Z" transform="matrix(1.83697e-16 1 1 -1.83697e-16 1675.5 1351.5)"/><path d="M1879.66 1274.21 1887.84 1274.78 1895.91 1276.41 1903.46 1278.94 1910.26 1282.23 1916.03 1286.15 1918.53 1288.37 1920.65 1290.7 1922.4 1293.15 1923.73 1295.73 1924.57 1298.43 1924.84 1300.97 1925.09 1303.29 1925 1302.84 1925.72 1305.14 1925.57 1304.78 1926.73 1307.04 1926.56 1306.75 1928.13 1308.96 1927.96 1308.74 1929.91 1310.88 1929.74 1310.71 1932.04 1312.75 1931.8 1312.57 1937.31 1316.31 1936.75 1316.03 1944.06 1318.47 1942.61 1322.82 1935 1320.28 1929.1 1316.28 1926.61 1314.06 1924.48 1311.73 1922.73 1309.28 1921.41 1306.7 1920.56 1304 1920.29 1301.46 1920.04 1299.14 1920.13 1299.59 1919.41 1297.29 1919.56 1297.65 1918.4 1295.39 1918.57 1295.68 1917 1293.47 1917.17 1293.69 1915.22 1291.55 1915.39 1291.72 1913.09 1289.68 1913.33 1289.86 1907.82 1286.12 1908.11 1286.29 1901.59 1283.12 1901.86 1283.23 1894.59 1280.8 1894.86 1280.87 1887.08 1279.3 1887.38 1279.34 1879.34 1278.79ZM1942.04 1306.21 1965.63 1325.93 1935.7 1332.97Z"/><path d="M0.157883-2.28622 7.4863-1.78013 14.7263-0.321298 21.5042 1.94799 27.6127 4.90872 32.846 8.45981 36.9336 12.4751 38.5514 14.7433 39.7555 17.0836 40.5261 19.5386 40.7711 21.8314 40.992 23.8982 40.8997 23.4553 41.5435 25.506 41.3948 25.1439 42.4332 27.1623 42.2612 26.88 43.6661 28.8498 43.4063 28.5457 47.2029 32.2751 46.5865 31.8429 55.8102 36.2586 53.8311 40.3926 44.2633 35.8122 40.0512 31.6747 38.4335 29.4065 37.2294 27.0661 36.4587 24.6112 36.2137 22.3184 35.9929 20.2515 36.0851 20.6944 35.4414 18.6438 35.5901 19.0058 34.5516 16.9875 34.7237 17.2698 33.3187 15.3 33.5786 15.6041 29.7819 11.8747 30.1011 12.1361 25.1768 8.79472 25.464 8.9606 19.6375 6.13657 19.9095 6.24747 13.4064 4.07016 13.6813 4.14358 6.72708 2.74234 7.02185 2.78204-0.157883 2.28622ZM53.8823 23.8622 76.9848 44.1498 46.8933 50.4593Z" transform="matrix(1 0 0 -1 1810.5 1396.65)"/><path d="M0.167013-2.28557 9.29336-1.61869 18.2813 0.2976 26.6907 3.27684 34.2578 7.15769 40.6712 11.7625 43.433 14.3588 45.7782 17.0708 47.7003 19.9224 49.1506 22.905 50.0698 26.0033 50.3674 28.9501 50.6432 31.6822 50.5602 31.2607 51.3644 33.9714 51.2283 33.621 52.5256 36.289 52.3649 36.0102 54.1201 38.6141 53.9532 38.396 56.131 40.9143 55.9672 40.7436 58.5324 43.1551 58.2993 42.9633 64.4511 47.3802 63.9484 47.1072 74.6318 51.2802 72.9642 55.5494 62.0122 51.2715 55.5033 46.5982 52.7416 44.0019 50.3964 41.2899 48.4742 38.4383 47.024 35.4557 46.1048 32.3574 45.8072 29.4106 45.5313 26.6785 45.6144 27.1001 44.8102 24.3893 44.9463 24.7397 43.649 22.0717 43.8096 22.3505 42.0545 19.7466 42.2214 19.9647 40.0436 17.4463 40.2073 17.617 37.6421 15.2055 37.8752 15.3974 31.7234 10.9804 32.0142 11.158 24.7354 7.42496 25.0159 7.54595 16.8918 4.6678 17.1792 4.74898 8.49155 2.89671 8.80239 2.94099-0.167013 2.28557ZM72.2901 38.9997 96.1746 58.3606 66.3552 65.8516Z" transform="matrix(1 0 0 -1 1990.5 1338.86)"/><path d="M1932.71 1353.22 1939.47 1353.85 1946.19 1355.68 1952.45 1358.52 1958.08 1362.2 1962.87 1366.6 1966.61 1371.57 1969.04 1376.94 1969.72 1379.86 1969.94 1382.58 1970.14 1385.13 1970.09 1384.8 1970.67 1387.33 1970.53 1386.9 1972.76 1391.83 1972.5 1391.39 1975.97 1396 1975.33 1395.42 1982.61 1399.82 1980.23 1403.74 1972.58 1399.11 1968.69 1393.95 1966.26 1388.58 1965.58 1385.66 1965.37 1382.94 1965.17 1380.39 1965.22 1380.73 1964.63 1378.19 1964.78 1378.62 1962.54 1373.7 1962.8 1374.13 1959.33 1369.52 1959.61 1369.83 1955.12 1365.71 1955.41 1365.94 1950.09 1362.45 1950.4 1362.62 1944.46 1359.93 1944.81 1360.05 1938.45 1358.32 1938.84 1358.39 1932.29 1357.78ZM1982.09 1387.3 2002.8 1410.02 1972.2 1412.96Z"/><path d="M2121.62 1278.21 2129.99 1278.64 2138.21 1279.88 2145.91 1281.81 2152.85 1284.33 2158.76 1287.33 2161.32 1289.03 2163.53 1290.84 2165.37 1292.77 2166.8 1294.85 2167.74 1297.1 2168.04 1299.17 2168.29 1300.95 2168.14 1300.39 2168.88 1302.15 2168.65 1301.74 2169.85 1303.48 2169.62 1303.19 2171.23 1304.89 2171.03 1304.69 2173.03 1306.33 2172.85 1306.2 2175.21 1307.77 2174.98 1307.63 2180.64 1310.51 2180.17 1310.33 2188.03 1312.33 2186.9 1316.77 2178.8 1314.71 2172.79 1311.66 2170.22 1309.95 2168.02 1308.15 2166.18 1306.22 2164.74 1304.14 2163.8 1301.89 2163.5 1299.82 2163.25 1298.04 2163.4 1298.6 2162.66 1296.84 2162.89 1297.25 2161.69 1295.51 2161.92 1295.8 2160.31 1294.1 2160.52 1294.29 2158.51 1292.65 2158.69 1292.79 2156.33 1291.22 2156.56 1291.35 2150.9 1288.48 2151.16 1288.59 2144.45 1286.16 2144.68 1286.23 2137.2 1284.36 2137.41 1284.4 2129.42 1283.19 2129.64 1283.22 2121.38 1282.79ZM2185.31 1300.22 2210.04 1318.49 2180.59 1327.31Z"/><path d="M0.123155-2.28836 9.89964-1.7622 19.4841-0.257168 28.4614 2.08521 36.5118 5.12605 40.1619 6.89948 43.4561 8.79833 46.3908 10.8303 48.9319 12.9945 51.0405 15.2985 52.6644 17.7582 53.7228 20.3857 54.0585 22.8342 54.3556 25.0013 54.2109 24.4563 55.077 26.6064 54.8637 26.2001 56.2608 28.3163 56.0389 28.0317 57.9291 30.097 57.7245 29.8996 60.0699 31.8971 59.8885 31.7576 62.6511 33.6704 62.491 33.5691 65.633 35.3802 65.49 35.3043 68.9733 36.9967 68.7816 36.9142 76.6206 39.8752 76.1815 39.7575 81.289 40.5947 80.5476 45.1177 75.2147 44.2435 67.0643 41.1649 63.4142 39.3915 60.12 37.4926 57.1853 35.4607 54.6442 33.2965 52.5356 30.9926 50.9117 28.5329 49.8533 25.9053 49.5176 23.4568 49.2205 21.2897 49.3652 21.8347 48.4992 19.6846 48.7124 20.0909 47.3153 17.9747 47.5372 18.2593 45.647 16.1939 45.8516 16.3914 43.5062 14.3939 43.6876 14.5333 40.925 12.6206 41.0851 12.7219 37.9431 10.9108 38.0861 10.9866 34.6028 9.29421 34.7945 9.37678 26.9555 6.41579 27.1867 6.48939 18.4374 4.20649 18.6604 4.25299 9.30419 2.78379 9.53653 2.80822-0.123155 2.28836ZM78.4476 28.5746 103.576 46.2909 74.3259 55.7639Z" transform="matrix(1 0 0 -1 2060.5 1413.79)"/><path d="M0.18843-2.28391 8.59796-1.59009 16.9055 0.409737 24.6706 3.51573 31.651 7.55769 37.5568 12.3453 40.0972 15.0417 42.2479 17.8498 44.0043 20.7917 45.3228 23.8534 46.1536 27.0154 46.424 30.0389 46.6773 32.8704 46.6112 32.4922 47.3494 35.3016 47.2377 34.9776 48.4285 37.7427 48.2914 37.4744 49.9026 40.1731 49.7542 39.9544 51.7533 42.5644 51.602 42.3864 53.9567 44.8857 53.7318 44.677 59.3788 49.2548 58.8136 48.9182 67.0528 52.3355 65.2969 56.5691 56.7507 53.0245 50.7261 48.1406 48.1858 45.4442 46.035 42.6362 44.2787 39.6942 42.9602 36.6326 42.1293 33.4706 41.8589 30.4472 41.6057 27.6156 41.6718 27.9938 40.9336 25.1844 41.0452 25.5084 39.8544 22.7433 39.9915 23.0115 38.3804 20.3128 38.5287 20.5316 36.5296 17.9215 36.681 18.0995 34.3263 15.6002 34.5511 15.8089 28.9041 11.2311 29.1989 11.4341 22.5173 7.56513 22.8146 7.70971 15.3571 4.72677 15.6719 4.82702 7.69708 2.90731 8.04499 2.96319-0.18843 2.28391ZM65.3734 39.9807 88.2829 60.4859 58.133 66.5104Z" transform="matrix(1 0 0 -1 2270.5 1330.99)"/><path d="M0.250967-2.27788 5.98181-1.64648 11.7266 0.200239 17.0608 3.04951 21.8286 6.73633 25.87 11.1114 29.0132 16.0373 31.0655 21.3815 31.7633 26.6834 32.4257 31.7163 32.293 31.1938 34.165 36.0686 33.5974 35.2224 40.313 41.5517 37.1695 44.8871 30.0736 38.1995 27.917 32.5835 27.2192 27.2815 26.5568 22.2487 26.6895 22.7712 24.8175 17.8964 25.0249 18.3076 22.1161 13.749 22.3647 14.0713 18.5918 9.98703 18.8734 10.2449 14.4094 6.79306 14.7315 7.00154 9.74909 4.34018 10.1275 4.50052 4.79946 2.78776 5.24984 2.88394-0.250967 2.27788ZM41.1403 28.9256 58.9824 53.965 28.2457 53.215Z" transform="matrix(1.83697e-16 1 1 -1.83697e-16 2217.5 1352.5)"/><path d="M2384.66 1293.21 2392.84 1293.78 2400.91 1295.41 2408.46 1297.94 2415.26 1301.23 2421.03 1305.15 2423.53 1307.37 2425.65 1309.7 2427.4 1312.15 2428.73 1314.73 2429.57 1317.43 2429.84 1319.97 2430.09 1322.29 2430 1321.84 2430.72 1324.14 2430.57 1323.78 2431.73 1326.04 2431.56 1325.75 2433.13 1327.96 2432.96 1327.74 2434.91 1329.88 2434.74 1329.71 2437.04 1331.75 2436.8 1331.57 2442.31 1335.31 2441.75 1335.03 2449.06 1337.47 2447.61 1341.82 2440 1339.28 2434.1 1335.28 2431.61 1333.06 2429.48 1330.73 2427.73 1328.28 2426.41 1325.7 2425.56 1323 2425.29 1320.46 2425.04 1318.14 2425.13 1318.59 2424.41 1316.29 2424.56 1316.65 2423.4 1314.39 2423.57 1314.68 2422 1312.47 2422.17 1312.69 2420.22 1310.55 2420.39 1310.72 2418.09 1308.68 2418.33 1308.86 2412.82 1305.12 2413.11 1305.29 2406.59 1302.12 2406.86 1302.23 2399.59 1299.8 2399.86 1299.87 2392.08 1298.3 2392.37 1298.34 2384.34 1297.79ZM2447.04 1325.21 2470.63 1344.93 2440.7 1351.97Z"/><path d="M2342.68 1365.22 2350.55 1365.84 2358.33 1367.64 2365.61 1370.43 2372.16 1374.08 2377.75 1378.43 2382.09 1383.32 2383.78 1386.04 2385.03 1388.83 2385.82 1391.72 2386.07 1394.46 2386.31 1397.01 2386.24 1396.61 2386.93 1399.14 2386.81 1398.81 2387.92 1401.29 2387.78 1401.02 2389.29 1403.44 2389.06 1403.13 2393.13 1407.72 2392.82 1407.44 2398.1 1411.55 2397.48 1411.2 2403.8 1413.51 2402.24 1417.81 2395.57 1415.39 2389.84 1410.92 2385.5 1406.03 2383.81 1403.31 2382.56 1400.52 2381.77 1397.63 2381.51 1394.89 2381.27 1392.34 2381.34 1392.74 2380.65 1390.21 2380.77 1390.54 2379.66 1388.06 2379.8 1388.33 2378.3 1385.91 2378.53 1386.22 2374.46 1381.63 2374.76 1381.91 2369.48 1377.8 2369.77 1377.99 2363.52 1374.52 2363.82 1374.65 2356.84 1371.97 2357.15 1372.07 2349.69 1370.34 2350.02 1370.39 2342.32 1369.78ZM2402.32 1401.18 2425.08 1421.85 2394.89 1427.66Z"/><path d="M0.113496-2.28885 4.20672-2.08589 8.41804-1.47238 16.4337 0.806606 23.9583 4.36143 30.7052 8.97569 36.4362 14.4629 40.8614 20.5965 42.5571 23.9514 43.803 27.3683 44.583 30.8743 44.8396 34.2624 45.0837 37.4865 45.0356 37.1619 45.7472 40.3608 45.6633 40.0734 46.8113 43.2219 46.7035 42.9731 48.2567 46.0459 48.0699 45.7389 52.2672 51.5566 51.9936 51.2421 57.4376 56.4545 56.8414 56.0424 64.3341 59.6255 62.3567 63.7603 54.5329 60.0189 48.6727 54.408 44.2475 48.2744 42.5518 44.9195 41.3059 41.5026 40.5259 37.9966 40.2693 34.6085 40.0252 31.3844 40.0733 31.709 39.3617 28.5101 39.4456 28.7975 38.2976 25.649 38.4054 25.8978 36.8522 22.825 37.0389 23.132 32.8417 17.3143 33.1153 17.6288 27.6713 12.4164 27.9625 12.6527 21.5212 8.24735 21.8359 8.42783 14.6466 5.03137 14.9987 5.1636 7.31068 2.97776 7.60704 3.04118 3.65392 2.4653 3.87079 2.48642-0.113496 2.28885ZM63.2995 47.1992 85.1089 68.8709 54.6859 73.3154Z" transform="matrix(1 0 0 -1 2474.5 1418.37)"/></g></svg>