<svg width="1936" height="816" xmlns="http://www.w3.org/2000/svg" xmlns:xlink="http://www.w3.org/1999/xlink" xml:space="preserve" overflow="hidden"><defs><clipPath id="clip0"><rect x="1022" y="975" width="1936" height="816"/></clipPath></defs><g clip-path="url(#clip0)" transform="translate(-1022 -975)"><rect x="1022" y="975" width="1936" height="816" fill="#FFFFFF"/><rect x="1040.5" y="992.5" width="352" height="353" stroke="#000000" stroke-width="4.58333" stroke-miterlimit="8" fill="none"/><rect x="1392.5" y="992.5" width="353" height="353" stroke="#000000" stroke-width="4.58333" stroke-miterlimit="8" fill="none"/><rect x="1745.5" y="992.5" width="353" height="353" stroke="#000000" stroke-width="4.58333" stroke-miterlimit="8" fill="none"/><rect x="2098.5" y="992.5" width="352" height="353" stroke="#000000" stroke-width="4.58333" stroke-miterlimit="8" fill="none"/><path d="M1182 1168.5C1182 1149.45 1197.22 1134 1216 1134 1234.78 1134 1250 1149.45 1250 1168.5 1250 1187.55 1234.78 1203 1216 1203 1197.22 1203 1182 1187.55 1182 1168.5Z" fill="#C5C5FF" fill-rule="evenodd"/><path d="M1534 1168.5C1534 1149.45 1549.45 1134 1568.5 1134 1587.55 1134 1603 1149.45 1603 1168.5 1603 1187.55 1587.55 1203 1568.5 1203 1549.45 1203 1534 1187.55 1534 1168.5Z" fill="#9393FF" fill-rule="evenodd"/><path d="M1887 1168.5C1887 1149.45 1902.45 1134 1921.5 1134 1940.55 1134 1956 1149.45 1956 1168.5 1956 1187.55 1940.55 1203 1921.5 1203 1902.45 1203 1887 1187.55 1887 1168.5Z" fill="#5B5BFF" fill-rule="evenodd"/><path d="M2239 1168.5C2239 1149.45 2254.45 1134 2273.5 1134 2292.55 1134 2308 1149.45 2308 1168.5 2308 1187.55 2292.55 1203 2273.5 1203 2254.45 1203 2239 1187.55 2239 1168.5Z" fill="#0000FF" fill-rule="evenodd"/><rect x="1040.5" y="1416.5" width="235" height="353" stroke="#000000" stroke-width="4.58333" stroke-miterlimit="8" fill="none"/><rect x="1275.5" y="1416.5" width="235" height="353" stroke="#000000" stroke-width="4.58333" stroke-miterlimit="8" fill="none"/><rect x="1510.5" y="1416.5" width="235" height="353" stroke="#000000" stroke-width="4.58333" stroke-miterlimit="8" fill="none"/><rect x="1745.5" y="1416.5" width="235" height="353" stroke="#000000" stroke-width="4.58333" stroke-miterlimit="8" fill="none"/><rect x="1980.5" y="1416.5" width="235" height="353" stroke="#000000" stroke-width="4.58333" stroke-miterlimit="8" fill="none"/><rect x="2215.5" y="1416.5" width="235" height="353" stroke="#000000" stroke-width="4.58333" stroke-miterlimit="8" fill="none"/><path d="M1177 1592.5C1177 1573.45 1192.45 1558 1211.5 1558 1230.55 1558 1246 1573.45 1246 1592.5 1246 1611.55 1230.55 1627 1211.5 1627 1192.45 1627 1177 1611.55 1177 1592.5Z" fill="#C5C5FF" fill-rule="evenodd"/><path d="M1530 1592.5C1530 1573.45 1545.45 1558 1564.5 1558 1583.55 1558 1599 1573.45 1599 1592.5 1599 1611.55 1583.55 1627 1564.5 1627 1545.45 1627 1530 1611.55 1530 1592.5Z" fill="#9393FF" fill-rule="evenodd"/><path d="M1882 1592.5C1882 1573.45 1897.45 1558 1916.5 1558 1935.55 1558 1951 1573.45 1951 1592.5 1951 1611.55 1935.55 1627 1916.5 1627 1897.45 1627 1882 1611.55 1882 1592.5Z" fill="#5B5BFF" fill-rule="evenodd"/><path d="M2235 1592.5C2235 1573.45 2250.45 1558 2269.5 1558 2288.55 1558 2304 1573.45 2304 1592.5 2304 1611.55 2288.55 1627 2269.5 1627 2250.45 1627 2235 1611.55 2235 1592.5Z" fill="#0000FF" fill-rule="evenodd"/><text font-family="Arial,Arial_MSFontService,sans-serif" font-weight="400" font-size="50" transform="matrix(1 0 0 1 2531.84 1065)">C≤1</text><text font-family="Arial,Arial_MSFontService,sans-serif" font-weight="400" font-size="50" transform="matrix(1 0 0 1 2531.84 1186)">Particle passes </text><text font-family="Arial,Arial_MSFontService,sans-serif" font-weight="400" font-size="50" transform="matrix(1 0 0 1 2531.84 1247)">one element or </text><text font-family="Arial,Arial_MSFontService,sans-serif" font-weight="400" font-size="50" transform="matrix(1 0 0 1 2531.84 1307)">less per step</text><text font-family="Arial,Arial_MSFontService,sans-serif" font-weight="400" font-size="50" transform="matrix(1 0 0 1 2531.84 1488)">C&gt;1</text><text font-family="Arial,Arial_MSFontService,sans-serif" font-weight="400" font-size="50" transform="matrix(1 0 0 1 2531.84 1609)">Particle passes </text><text font-family="Arial,Arial_MSFontService,sans-serif" font-weight="400" font-size="50" transform="matrix(1 0 0 1 2531.84 1670)">more than one </text><text font-family="Arial,Arial_MSFontService,sans-serif" font-weight="400" font-size="50" transform="matrix(1 0 0 1 2531.84 1730)">element per step</text><text font-family="Calibri,Calibri_MSFontService,sans-serif" font-weight="400" font-size="55" transform="matrix(1 0 0 1 1197.69 1245)">t</text><text font-family="Calibri,Calibri_MSFontService,sans-serif" font-weight="400" font-size="37" transform="matrix(1 0 0 1 1216.03 1258)">0</text><text font-family="Calibri,Calibri_MSFontService,sans-serif" font-weight="400" font-size="55" transform="matrix(1 0 0 1 1545.78 1245)">t</text><text font-family="Calibri,Calibri_MSFontService,sans-serif" font-weight="400" font-size="37" transform="matrix(1 0 0 1 1564.11 1258)">1</text><text font-family="Calibri,Calibri_MSFontService,sans-serif" font-weight="400" font-size="55" transform="matrix(1 0 0 1 2255.5 1245)">t</text><text font-family="Calibri,Calibri_MSFontService,sans-serif" font-weight="400" font-size="37" transform="matrix(1 0 0 1 2273.84 1258)">3</text><text font-family="Calibri,Calibri_MSFontService,sans-serif" font-weight="400" font-size="55" transform="matrix(1 0 0 1 1902.9 1245)">t</text><text font-family="Calibri,Calibri_MSFontService,sans-serif" font-weight="400" font-size="37" transform="matrix(1 0 0 1 1921.23 1258)">2</text><text font-family="Calibri,Calibri_MSFontService,sans-serif" font-weight="400" font-size="55" transform="matrix(1 0 0 1 1197.69 1671)">t</text><text font-family="Calibri,Calibri_MSFontService,sans-serif" font-weight="400" font-size="37" transform="matrix(1 0 0 1 1216.03 1684)">0</text><text font-family="Calibri,Calibri_MSFontService,sans-serif" font-weight="400" font-size="55" transform="matrix(1 0 0 1 1545.78 1671)">t</text><text font-family="Calibri,Calibri_MSFontService,sans-serif" font-weight="400" font-size="37" transform="matrix(1 0 0 1 1564.11 1684)">1</text><text font-family="Calibri,Calibri_MSFontService,sans-serif" font-weight="400" font-size="55" transform="matrix(1 0 0 1 2255.5 1671)">t</text><text font-family="Calibri,Calibri_MSFontService,sans-serif" font-weight="400" font-size="37" transform="matrix(1 0 0 1 2273.84 1684)">3</text><text font-family="Calibri,Calibri_MSFontService,sans-serif" font-weight="400" font-size="55" transform="matrix(1 0 0 1 1902.9 1671)">t</text><text font-family="Calibri,Calibri_MSFontService,sans-serif" font-weight="400" font-size="37" transform="matrix(1 0 0 1 1921.23 1684)">2</text></g></svg>