<svg width="1687" height="749" xmlns="http://www.w3.org/2000/svg" xmlns:xlink="http://www.w3.org/1999/xlink" xml:space="preserve" overflow="hidden"><defs><clipPath id="clip0"><rect x="1252" y="822" width="1687" height="749"/></clipPath></defs><g clip-path="url(#clip0)" transform="translate(-1252 -822)"><rect x="1252" y="822" width="758" height="749" fill="#FFFFFF"/><path d="M1314.5 1048.31C1399.34 943.989 1553.95 866.828 1689.18 859.5 1826.13 912.09 1930.78 1043.56 1960.5 1156.93 1853.69 1175.9 1683.58 1242.72 1593.57 1353.5 1541.89 1238.84 1435.95 1119 1314.5 1048.31Z" stroke="#000000" stroke-width="4.58333" stroke-miterlimit="8" fill="none" fill-rule="evenodd"/><path d="M1671 861.5C1671 852.387 1678.39 845 1687.5 845 1696.61 845 1704 852.387 1704 861.5 1704 870.613 1696.61 878 1687.5 878 1678.39 878 1671 870.613 1671 861.5Z" fill="#0000FF" fill-rule="evenodd"/><path d="M1301 1047.5C1301 1038.39 1308.39 1031 1317.5 1031 1326.61 1031 1334 1038.39 1334 1047.5 1334 1056.61 1326.61 1064 1317.5 1064 1308.39 1064 1301 1056.61 1301 1047.5Z" fill="#0000FF" fill-rule="evenodd"/><path d="M1944 1158.5C1944 1149.39 1951.61 1142 1961 1142 1970.39 1142 1978 1149.39 1978 1158.5 1978 1167.61 1970.39 1175 1961 1175 1951.61 1175 1944 1167.61 1944 1158.5Z" fill="#0000FF" fill-rule="evenodd"/><path d="M1580 1352.5C1580 1343.39 1587.39 1336 1596.5 1336 1605.61 1336 1613 1343.39 1613 1352.5 1613 1361.61 1605.61 1369 1596.5 1369 1587.39 1369 1580 1361.61 1580 1352.5Z" fill="#0000FF" fill-rule="evenodd"/><path d="M2.54327 0.00925624 348.608 176.234 347.568 178.276 1.50337 2.05139ZM18.2844 28.4234-0.00473231-0.00240977 33.7414-1.93054C34.3732-1.96664 34.9146-1.48373 34.9507-0.851931 34.9868-0.220135 34.5039 0.3213 33.8721 0.357398L2.08708 2.17348 2.98533 0.40952 20.2116 27.1834C20.554 27.7156 20.4002 28.4246 19.868 28.767 19.3358 29.1094 18.6268 28.9555 18.2844 28.4234ZM331.823 149.86 350.113 178.286 316.366 180.214C315.735 180.25 315.193 179.768 315.157 179.136 315.121 178.504 315.604 177.962 316.236 177.926L348.021 176.11 347.123 177.874 329.896 151.1C329.554 150.568 329.708 149.859 330.24 149.517 330.772 149.174 331.481 149.328 331.823 149.86Z" transform="matrix(1 0 0 -1 1637 1379.28)"/><path d="M1537.89 1365.05 1278.67 1076.46 1280.37 1074.93 1539.59 1363.52ZM1533.42 1332.87 1540.26 1365.98 1508.08 1355.64C1507.48 1355.44 1507.15 1354.8 1507.34 1354.19 1507.53 1353.59 1508.18 1353.26 1508.78 1353.45L1539.09 1363.19 1537.62 1364.52 1531.18 1333.34C1531.05 1332.72 1531.45 1332.11 1532.07 1331.98 1532.69 1331.86 1533.29 1332.25 1533.42 1332.87ZM1284.84 1107.1 1278 1074 1310.18 1084.34C1310.78 1084.53 1311.11 1085.17 1310.92 1085.78 1310.72 1086.38 1310.08 1086.71 1309.48 1086.52L1279.17 1076.78 1280.64 1075.46 1287.08 1106.63C1287.21 1107.25 1286.81 1107.86 1286.19 1107.99 1285.57 1108.12 1284.96 1107.72 1284.84 1107.1Z"/><text font-family="Calibri,Calibri_MSFontService,sans-serif" font-weight="400" font-size="50" transform="matrix(1 0 0 1 1828.17 1353)">Δ</text><text font-family="Calibri,Calibri_MSFontService,sans-serif" font-weight="400" font-size="50" transform="matrix(1 0 0 1 1856.81 1353)">x</text><text font-family="Calibri,Calibri_MSFontService,sans-serif" font-weight="400" font-size="50" transform="matrix(1 0 0 1 1353.2 1272)">Δ</text><text font-family="Calibri,Calibri_MSFontService,sans-serif" font-weight="400" font-size="50" transform="matrix(1 0 0 1 1381.85 1272)">y</text><path d="M1527.29 1465.96 1518.6 1481.34 1528.14 1481.34 1527.73 1473.48C1527.68 1472.4 1527.64 1471.06 1527.61 1469.45 1527.57 1467.84 1527.56 1466.68 1527.56 1465.96ZM1556.43 1463.35C1555.57 1463.35 1554.66 1463.38 1553.7 1463.44L1550.57 1477.58 1553.46 1477.58C1555.82 1477.58 1557.68 1477.26 1559.05 1476.63 1560.41 1475.99 1561.5 1474.95 1562.29 1473.5 1563.09 1472.05 1563.49 1470.49 1563.49 1468.82 1563.49 1468.12 1563.42 1467.49 1563.29 1466.95 1563.16 1466.4 1562.99 1465.95 1562.78 1465.59 1562.57 1465.23 1562.3 1464.92 1561.98 1464.64 1561.65 1464.36 1561.24 1464.12 1560.76 1463.92 1560.27 1463.72 1559.7 1463.57 1559.06 1463.48 1558.42 1463.39 1557.54 1463.35 1556.43 1463.35ZM1546.64 1461.2 1557.51 1461.2C1559.23 1461.2 1560.64 1461.3 1561.73 1461.5 1562.82 1461.71 1563.75 1462.01 1564.53 1462.42 1565.3 1462.83 1565.95 1463.35 1566.47 1463.99 1566.99 1464.64 1567.38 1465.36 1567.64 1466.17 1567.9 1466.97 1568.03 1467.83 1568.03 1468.74 1568.03 1471.25 1567.27 1473.38 1565.74 1475.14 1564.21 1476.9 1561.95 1478.23 1558.97 1479.14L1558.97 1479.41C1559.75 1480 1560.38 1480.7 1560.86 1481.51 1561.34 1482.32 1561.73 1483.46 1562.02 1484.9L1562.59 1487.74C1562.77 1488.63 1562.97 1489.44 1563.2 1490.15 1563.42 1490.87 1563.7 1491.44 1564.01 1491.86 1564.33 1492.29 1564.69 1492.6 1565.09 1492.81 1565.49 1493.03 1566.07 1493.2 1566.83 1493.33L1566.59 1494.52 1559.83 1494.52C1559.31 1493.08 1558.84 1491.35 1558.44 1489.35L1557.36 1484.17C1557.18 1483.28 1556.97 1482.52 1556.71 1481.91 1556.46 1481.3 1556.16 1480.83 1555.81 1480.5 1555.46 1480.16 1555.05 1479.94 1554.59 1479.84 1554.13 1479.73 1553.56 1479.68 1552.89 1479.68L1550.11 1479.68 1548.4 1487.42C1548.26 1488.05 1548.15 1488.56 1548.1 1488.93 1548.04 1489.31 1547.99 1489.7 1547.95 1490.12 1547.91 1490.53 1547.89 1490.9 1547.89 1491.23 1547.89 1491.73 1547.97 1492.13 1548.13 1492.41 1548.3 1492.7 1548.54 1492.9 1548.87 1493.03 1549.19 1493.16 1549.75 1493.26 1550.55 1493.33L1550.28 1494.52 1540.25 1494.52 1540.52 1493.33C1541.13 1493.23 1541.6 1493.07 1541.91 1492.85 1542.22 1492.63 1542.48 1492.33 1542.69 1491.94 1542.9 1491.55 1543.1 1491.07 1543.27 1490.51 1543.45 1489.95 1543.72 1488.86 1544.08 1487.25L1548.23 1468.45C1548.59 1466.82 1548.77 1465.54 1548.77 1464.59 1548.77 1463.79 1548.58 1463.24 1548.21 1462.93 1547.83 1462.62 1547.22 1462.44 1546.38 1462.39ZM1527.44 1460.81 1531.12 1460.81 1532.88 1488.03C1532.96 1489.32 1533.11 1490.32 1533.32 1491.04 1533.53 1491.77 1533.82 1492.31 1534.19 1492.66 1534.55 1493.01 1535.09 1493.23 1535.79 1493.33L1535.52 1494.52 1525.36 1494.52 1525.63 1493.33C1526.59 1493.25 1527.31 1492.87 1527.78 1492.2 1528.25 1491.54 1528.49 1490.37 1528.49 1488.69 1528.49 1488.05 1528.46 1487.36 1528.41 1486.61L1528.24 1483.46 1517.5 1483.46 1516.16 1485.86C1515.52 1486.98 1515.06 1487.94 1514.77 1488.75 1514.47 1489.56 1514.33 1490.27 1514.33 1490.89 1514.33 1492.25 1515.15 1493.07 1516.79 1493.33L1516.52 1494.52 1506.54 1494.52 1506.81 1493.33C1507.31 1493.26 1507.79 1493.06 1508.23 1492.73 1508.68 1492.4 1509.16 1491.89 1509.66 1491.22 1510.17 1490.54 1510.88 1489.42 1511.79 1487.86Z" fill-rule="evenodd"/><text fill="#000000" fill-opacity="0" font-family="Arial,Arial_MSFontService,sans-serif" font-size="33.7158" x="1506.54" y="1490.31">𝐴𝑅</text><path d="M1590.13 1483.68 1620.21 1483.68 1620.21 1486.93 1590.13 1486.93ZM1590.13 1473.55 1620.21 1473.55 1620.21 1476.8 1590.13 1476.8Z" fill-rule="evenodd"/><text fill="#000000" fill-opacity="0" font-family="Arial,Arial_MSFontService,sans-serif" font-size="13.3789" x="1590.13" y="1485.26">=</text><path d="M1653.4 1428.05 1644.1 1452.46 1661.09 1452.46ZM1652.55 1422.65 1656.16 1422.65 1666.46 1454.8 1666.46 1456.37 1639.78 1456.37 1639.78 1454.8Z" fill-rule="evenodd"/><text fill="#000000" fill-opacity="0" font-family="Arial,Arial_MSFontService,sans-serif" font-size="33.7158" x="1639.78" y="1452.15">Δ</text><path d="M1677.97 1432.61C1678.47 1432.61 1678.92 1432.67 1679.3 1432.78 1679.68 1432.9 1680.02 1433.07 1680.31 1433.31 1680.61 1433.54 1680.87 1433.85 1681.09 1434.22 1681.32 1434.6 1681.54 1435.11 1681.75 1435.75 1681.97 1436.39 1682.17 1437.19 1682.35 1438.14 1682.54 1439.09 1682.71 1440.08 1682.85 1441.11L1683.1 1441.11C1684.66 1438.91 1685.84 1437.3 1686.65 1436.29 1687.45 1435.27 1688.13 1434.51 1688.69 1434.02 1689.24 1433.52 1689.77 1433.17 1690.29 1432.97 1690.8 1432.76 1691.48 1432.66 1692.33 1432.66 1693.09 1432.66 1693.72 1432.76 1694.21 1432.95L1693.23 1437.37 1691.52 1437.37C1691.42 1436.69 1691.14 1436.35 1690.67 1436.35 1690.52 1436.35 1690.36 1436.37 1690.2 1436.42 1690.04 1436.47 1689.84 1436.58 1689.6 1436.74 1689.37 1436.9 1689.02 1437.22 1688.57 1437.69 1688.11 1438.16 1687.6 1438.74 1687.03 1439.42 1686.46 1440.11 1685.87 1440.82 1685.27 1441.57L1683.61 1443.65C1683.9 1445.21 1684.18 1446.56 1684.44 1447.7 1684.7 1448.84 1684.93 1449.79 1685.14 1450.54 1685.34 1451.3 1685.52 1451.9 1685.67 1452.34 1685.83 1452.78 1685.99 1453.11 1686.17 1453.33 1686.35 1453.55 1686.54 1453.7 1686.72 1453.79 1686.91 1453.88 1687.13 1453.93 1687.37 1453.93 1687.81 1453.93 1688.24 1453.76 1688.65 1453.41 1689.07 1453.07 1689.66 1452.3 1690.45 1451.09L1692.03 1452.14C1690.89 1453.84 1689.86 1455.03 1688.94 1455.72 1688.02 1456.41 1686.93 1456.76 1685.66 1456.76 1684.96 1456.76 1684.37 1456.63 1683.88 1456.38 1683.39 1456.13 1682.97 1455.72 1682.61 1455.17 1682.25 1454.62 1681.93 1453.76 1681.66 1452.58 1681.15 1450.5 1680.84 1448.9 1680.73 1447.8L1680.48 1447.8C1678.76 1450.22 1677.48 1451.96 1676.64 1453.02 1675.8 1454.08 1675.11 1454.86 1674.56 1455.37 1674.02 1455.87 1673.49 1456.22 1672.98 1456.43 1672.46 1456.63 1671.79 1456.73 1670.94 1456.73 1670.17 1456.73 1669.55 1456.64 1669.06 1456.44L1670.04 1452.02 1671.74 1452.02C1671.84 1452.71 1672.13 1453.05 1672.6 1453.05 1672.83 1453.05 1673.07 1452.99 1673.32 1452.86 1673.57 1452.74 1673.93 1452.45 1674.41 1451.99 1674.88 1451.52 1675.53 1450.79 1676.36 1449.8 1677.19 1448.81 1678.39 1447.32 1679.97 1445.33 1679.73 1444.05 1679.48 1442.81 1679.22 1441.62 1678.95 1440.43 1678.69 1439.33 1678.41 1438.3 1678.13 1437.28 1677.9 1436.6 1677.73 1436.29 1677.55 1435.97 1677.36 1435.75 1677.15 1435.63 1676.95 1435.51 1676.69 1435.44 1676.38 1435.44 1676.04 1435.44 1675.73 1435.52 1675.46 1435.68 1675.18 1435.83 1674.88 1436.1 1674.55 1436.48 1674.23 1436.86 1673.8 1437.46 1673.26 1438.28L1671.67 1437.23C1672.7 1435.68 1673.68 1434.53 1674.63 1433.76 1675.57 1432.99 1676.68 1432.61 1677.97 1432.61Z" fill-rule="evenodd"/><text fill="#000000" fill-opacity="0" font-family="Arial,Arial_MSFontService,sans-serif" font-size="24.1455" x="1669.06" y="1453.74">𝑥</text><path d="M1653.17 1499.94 1643.87 1524.35 1660.86 1524.35ZM1652.32 1494.54 1655.93 1494.54 1666.24 1526.69 1666.24 1528.26 1639.55 1528.26 1639.55 1526.69Z" fill-rule="evenodd"/><text fill="#000000" fill-opacity="0" font-family="Arial,Arial_MSFontService,sans-serif" font-size="33.7158" x="1639.55" y="1524.04">Δ</text><path d="M1676.15 1504.53C1676.82 1504.53 1677.39 1504.62 1677.86 1504.8 1678.19 1504.93 1678.51 1505.14 1678.84 1505.44 1679.16 1505.74 1679.45 1506.16 1679.71 1506.7 1679.96 1507.24 1680.18 1507.84 1680.37 1508.51 1680.55 1509.17 1680.76 1510.13 1680.99 1511.39 1681.38 1513.49 1681.76 1515.7 1682.12 1518.02 1682.49 1520.33 1682.8 1522.49 1683.06 1524.47 1684.64 1522.19 1685.98 1519.96 1687.08 1517.78 1688.18 1515.6 1688.97 1513.71 1689.45 1512.09 1689.93 1510.48 1690.17 1509.17 1690.17 1508.16 1690.17 1507.4 1690 1506.88 1689.68 1506.6 1689.35 1506.33 1688.8 1506.16 1688.02 1506.11L1688.26 1504.92 1694.68 1504.92 1695.34 1506.14C1694.11 1509.52 1692.43 1513.14 1690.31 1517 1688.23 1520.78 1685.85 1524.54 1683.16 1528.28 1680.59 1531.85 1678.45 1534.43 1676.74 1536.02 1675.55 1537.11 1674.4 1537.89 1673.3 1538.36 1672.42 1538.72 1671.48 1538.9 1670.49 1538.9 1670.15 1538.9 1669.75 1538.87 1669.31 1538.82 1668.86 1538.76 1668.51 1538.68 1668.27 1538.58L1669.32 1533.85 1671.25 1533.85C1671.25 1534.89 1671.6 1535.41 1672.32 1535.41 1673.26 1535.41 1674.36 1534.82 1675.62 1533.64 1676.87 1532.46 1678.34 1530.68 1680.04 1528.31 1679.56 1525.46 1678.92 1522.02 1678.11 1518 1677.24 1513.71 1676.67 1511.05 1676.4 1510.02 1676.06 1508.78 1675.7 1507.99 1675.32 1507.65 1675.1 1507.44 1674.81 1507.33 1674.47 1507.33 1673.95 1507.33 1673.46 1507.55 1673 1507.97 1672.55 1508.39 1671.99 1509.12 1671.32 1510.17L1669.73 1509.12C1670.86 1507.44 1671.91 1506.26 1672.88 1505.56 1673.86 1504.87 1674.95 1504.53 1676.15 1504.53Z" fill-rule="evenodd"/><text fill="#000000" fill-opacity="0" font-family="Arial,Arial_MSFontService,sans-serif" font-size="34.375" x="1668.27" y="1534.6">𝑦</text><path d="M1638.26 1478.52 1667.76 1478.52 1697.26 1478.52 1697.26 1481.52 1667.76 1481.52 1638.26 1481.52Z" fill-rule="evenodd"/><path d="M1519.71 1214.12 1530.22 1208.14 1543.13 1202.19 1556.36 1197.42 1569.83 1193.82 1583.47 1191.38 1597.2 1190.08 1610.96 1189.93 1624.66 1190.9 1638.23 1193.01 1651.6 1196.23 1664.7 1200.55 1677.45 1205.98 1689.77 1212.5 1701.6 1220.1 1712.87 1228.78 1721.78 1236.95 1720.23 1238.64 1711.35 1230.5 1711.43 1230.56 1700.24 1221.95 1700.32 1222 1688.57 1214.45 1688.66 1214.5 1676.42 1208.03 1676.5 1208.07 1663.84 1202.68 1663.93 1202.71 1650.93 1198.42 1651.02 1198.44 1637.74 1195.25 1637.83 1195.26 1624.35 1193.18 1624.44 1193.19 1610.84 1192.21 1610.93 1192.22 1597.28 1192.37 1597.37 1192.37 1583.73 1193.65 1583.83 1193.64 1570.28 1196.07 1570.38 1196.05 1557 1199.62 1557.09 1199.6 1543.95 1204.33 1544.05 1204.3 1531.22 1210.2 1531.31 1210.15 1520.84 1216.11ZM1552.1 1216.6 1518.3 1216.24 1535.25 1186.99C1535.57 1186.45 1536.27 1186.26 1536.82 1186.58 1537.37 1186.9 1537.55 1187.6 1537.23 1188.14L1521.27 1215.69 1520.29 1213.97 1552.12 1214.31C1552.76 1214.32 1553.26 1214.83 1553.26 1215.47 1553.25 1216.1 1552.73 1216.61 1552.1 1216.6ZM1712.68 1207.04 1722.68 1239.33 1689.65 1232.14C1689.03 1232.01 1688.64 1231.4 1688.77 1230.78 1688.91 1230.16 1689.52 1229.77 1690.14 1229.9L1721.24 1236.67 1719.91 1238.13 1710.49 1207.72C1710.3 1207.12 1710.64 1206.47 1711.24 1206.29 1711.85 1206.1 1712.49 1206.44 1712.68 1207.04Z"/><text font-family="Calibri,Calibri_MSFontService,sans-serif" font-weight="400" font-size="50" transform="matrix(1 0 0 1 1602.06 1250)">θ</text><rect x="2111" y="936" width="828" height="478" fill="#FFFFFF"/><path d="M0 0 388.211 176.752" stroke="#000000" stroke-width="4.58333" stroke-miterlimit="8" fill="none" fill-rule="evenodd" transform="matrix(1 0 0 -1 2148.5 1359.25)"/><path d="M2900.02 1325.91 2536.5 1182.5" stroke="#000000" stroke-width="4.58333" stroke-miterlimit="8" fill="none" fill-rule="evenodd"/><path d="M0 0 751.727 32.3342" stroke="#000000" stroke-width="4.58333" stroke-miterlimit="8" fill="none" fill-rule="evenodd" transform="matrix(1 0 0 -1 2148.5 1357.83)"/><path d="M0 0 342.203 390.253" stroke="#000000" stroke-width="4.58333" stroke-miterlimit="8" fill="none" fill-rule="evenodd" transform="matrix(1 0 0 -1 2148.5 1358.75)"/><path d="M2536.56 1182.01 2490.5 967.5" stroke="#000000" stroke-width="4.58333" stroke-miterlimit="8" fill="none" fill-rule="evenodd"/><path d="M2900.42 1325.41 2490.5 968.5" stroke="#000000" stroke-width="4.58333" stroke-miterlimit="8" fill="none" fill-rule="evenodd"/><path d="M2475 971.5C2475 962.387 2482.39 955 2491.5 955 2500.61 955 2508 962.387 2508 971.5 2508 980.613 2500.61 988 2491.5 988 2482.39 988 2475 980.613 2475 971.5Z" fill="#0000FF" fill-rule="evenodd"/><path d="M2136 1357.5C2136 1348.39 2143.39 1341 2152.5 1341 2161.61 1341 2169 1348.39 2169 1357.5 2169 1366.61 2161.61 1374 2152.5 1374 2143.39 1374 2136 1366.61 2136 1357.5Z" fill="#0000FF" fill-rule="evenodd"/><path d="M2880 1324C2880 1314.61 2887.39 1307 2896.5 1307 2905.61 1307 2913 1314.61 2913 1324 2913 1333.39 2905.61 1341 2896.5 1341 2887.39 1341 2880 1333.39 2880 1324Z" fill="#0000FF" fill-rule="evenodd"/><path d="M2518 1182C2518 1172.61 2525.39 1165 2534.5 1165 2543.61 1165 2551 1172.61 2551 1182 2551 1191.39 2543.61 1199 2534.5 1199 2525.39 1199 2518 1191.39 2518 1182Z" fill="#0000FF" fill-rule="evenodd"/><path d="M2380.11 1241.99 2378.48 1235.96 2376.7 1227.68 2375.35 1219.41 2374.42 1211.15 2373.92 1202.92 2373.83 1194.72 2374.14 1186.58 2374.84 1178.5 2375.94 1170.5 2377.43 1162.57 2381.51 1147.08 2387.05 1132.1 2393.97 1117.74 2402.24 1104.11 2411.78 1091.31 2422.55 1079.43 2434.49 1068.6 2447.54 1058.9 2461.64 1050.45 2476.73 1043.36 2484.65 1040.34 2492.78 1037.7 2496.73 1036.62 2497.34 1038.82 2493.42 1039.91 2493.47 1039.89 2485.39 1042.51 2485.44 1042.49 2477.59 1045.48 2477.67 1045.45 2462.67 1052.5 2462.77 1052.45 2448.77 1060.84 2448.86 1060.78 2435.9 1070.4 2435.99 1070.33 2424.13 1081.09 2424.21 1081.02 2413.52 1092.81 2413.59 1092.72 2404.11 1105.44 2404.17 1105.35 2395.96 1118.89 2396.01 1118.79 2389.13 1133.05 2389.18 1132.95 2383.68 1147.83 2383.71 1147.72 2379.65 1163.11 2379.67 1163.03 2378.2 1170.89 2378.21 1170.83 2377.12 1178.78 2377.12 1178.73 2376.42 1186.75 2376.42 1186.69 2376.12 1194.78 2376.12 1194.72 2376.21 1202.86 2376.21 1202.81 2376.71 1210.98 2376.71 1210.93 2377.62 1219.13 2377.62 1219.07 2378.96 1227.29 2378.95 1227.23 2380.72 1235.44 2380.7 1235.39 2382.32 1241.4ZM2390.66 1211.27 2381.8 1243.89 2357.77 1220.12C2357.32 1219.68 2357.32 1218.95 2357.76 1218.5 2358.21 1218.05 2358.93 1218.05 2359.38 1218.5L2382.02 1240.88 2380.11 1241.4 2388.45 1210.67C2388.62 1210.06 2389.25 1209.7 2389.86 1209.87 2390.47 1210.03 2390.83 1210.66 2390.66 1211.27ZM2466.56 1028.45 2499.23 1037.12 2475.61 1061.29C2475.17 1061.75 2474.44 1061.75 2473.99 1061.31 2473.53 1060.87 2473.53 1060.14 2473.97 1059.69L2496.22 1036.92 2496.74 1038.83 2465.97 1030.67C2465.36 1030.51 2464.99 1029.88 2465.16 1029.27 2465.32 1028.66 2465.95 1028.29 2466.56 1028.45Z"/><text font-family="Calibri,Calibri_MSFontService,sans-serif" font-weight="400" font-size="50" transform="matrix(1 0 0 1 2404.41 1166)">β</text></g></svg>