<svg width="262" height="124" xmlns="http://www.w3.org/2000/svg" xmlns:xlink="http://www.w3.org/1999/xlink" overflow="hidden"><defs><clipPath id="clip0"><rect x="44" y="547" width="262" height="124"/></clipPath></defs><g clip-path="url(#clip0)" transform="translate(-44 -547)"><rect x="89.5001" y="650.5" width="151" height="12" stroke="#000000" stroke-width="1.33333" stroke-miterlimit="8" fill="#D9D9D9"/><path d="M113.5 650.5 133.75 569.5 221.5 569.5 201.25 650.5Z" stroke="#000000" stroke-width="1.33333" stroke-miterlimit="8" fill="#FFFFFF" fill-rule="evenodd"/><text font-family="Arial,Arial_MSFontService,sans-serif" font-weight="400" font-size="13" transform="translate(152.819 606)">Fluid <tspan font-size="13" x="-9.16667" y="16">element</tspan></text><path d="M240.5 562.833 262.119 562.833 262.119 564.167 240.5 564.167ZM254.455 558.258 263.442 563.5 254.455 568.743C254.137 568.928 253.729 568.821 253.543 568.503 253.358 568.185 253.465 567.776 253.783 567.591L261.783 562.924 261.783 564.076 253.783 559.409C253.465 559.224 253.358 558.816 253.543 558.498 253.729 558.18 254.137 558.072 254.455 558.258Z"/><text font-family="Arial,Arial_MSFontService,sans-serif" font-weight="400" font-size="13" transform="translate(272.145 567)">u=U<tspan font-size="13" x="-20.9869" y="92">u=0</tspan></text><rect x="89.5001" y="557.5" width="151" height="12" stroke="#000000" stroke-width="1.33333" stroke-miterlimit="8" fill="#D9D9D9"/><path d="M102.167 570.82 102.167 649.742 100.833 649.742 100.833 570.82ZM96.2575 578.484 101.5 569.497 106.743 578.484C106.928 578.802 106.821 579.21 106.503 579.396 106.185 579.581 105.776 579.474 105.591 579.156L100.924 571.156 102.076 571.156 97.4092 579.156C97.2237 579.474 96.8155 579.581 96.4975 579.396 96.1795 579.21 96.072 578.802 96.2575 578.484ZM106.743 642.078 101.5 651.065 96.2576 642.078C96.0721 641.76 96.1795 641.351 96.4976 641.166 96.8156 640.98 97.2238 641.088 97.4093 641.406L102.076 649.406 100.924 649.406 105.591 641.406C105.776 641.088 106.185 640.98 106.503 641.166 106.821 641.351 106.928 641.76 106.743 642.078Z"/><text font-family="Arial,Arial_MSFontService,sans-serif" font-weight="400" font-size="13" transform="translate(80.9767 611)">Δ<tspan font-size="13" x="8.83334" y="0">y</tspan><tspan font-size="13" x="-26.7987" y="-46">F</tspan></text><path d="M67.5001 562.833 89.1193 562.833 89.1193 564.167 67.5001 564.167ZM81.4552 558.258 90.4424 563.5 81.4552 568.743C81.1371 568.928 80.7289 568.821 80.5434 568.503 80.3579 568.185 80.4653 567.776 80.7833 567.591L88.7834 562.924 88.7833 564.076 80.7834 559.409C80.4653 559.224 80.3579 558.816 80.5434 558.498 80.729 558.18 81.1372 558.072 81.4552 558.258Z"/></g></svg>